<svg id="Layer_1" data-name="Layer 1" xmlns="http://www.w3.org/2000/svg" viewBox="0 0 512.18 512.1"><defs><style>.cls-1{fill:#374957;}</style></defs><path class="cls-1" d="M384,0a272.83,272.83,0,0,0-83.52,13.12A149.89,149.89,0,0,1,256,21.33a149.89,149.89,0,0,1-44.48-8.21A273.13,273.13,0,0,0,128,0,123.41,123.41,0,0,0,0,118.65c-.12,3.12-.12,6.23,0,9.35C0,265.45,71.57,400.77,123.05,488.21a48.53,48.53,0,0,0,90.28-24.72V322.28a44.27,44.27,0,0,1,35.5-44.37A42.68,42.68,0,0,1,298.67,320V463.49A48.53,48.53,0,0,0,389,488.21C440.45,400.75,512,265.43,512,128A123.41,123.41,0,0,0,393.35,0C390.23-.12,387.12-.12,384,0Z" transform="translate(0.09 0.09)"/></svg>