<?xml version="1.0" encoding="utf-8"?>
<!-- Generator: Adobe Illustrator 26.0.0, SVG Export Plug-In . SVG Version: 6.00 Build 0)  -->
<svg version="1.1" id="Layer_1" xmlns="http://www.w3.org/2000/svg" xmlns:xlink="http://www.w3.org/1999/xlink" x="0px" y="0px"
	 viewBox="0 0 512.2 512.1" style="enable-background:new 0 0 512.2 512.1;" xml:space="preserve">
<style type="text/css">
	.st0{fill:#1F3BB3;}
	.st1{fill:#FFFFFF;}
</style>
<path class="st0" d="M383.2-0.5c-28.4,0-56.5,4.5-83.6,13.1c-14.4,4.9-29.4,7.6-44.5,8.2c-15.1-0.6-30.1-3.4-44.5-8.2
	c-27-8.7-55.2-13.1-83.6-13.1C59.4-3.3,2.1,49.7-1,118.1l0,0v9.3C-1,264.9,70.6,400,122.3,486.9c13.9,23.2,43.6,30.7,66.7,16.9
	c14.9-8.7,24-24.9,23.8-42.3v-140c-0.5-21.5,14.6-40.3,35.5-44.2c22.7-4.5,44.6,10.4,49,33.4c0.1,0.5,0.2,1,0.3,1.5
	c0.2,2.4,0.2,4.8,0,7.2v143.4c0.2,26.9,21.9,48.6,48.5,48.6c17.1-0.1,32.9-9.1,41.8-23.9c51.4-87.5,123.1-222.6,123.1-359.4
	C512.6,60,459.5,3.3,392.2,1.2l0,0C389.3,0.5,386.3-0.1,383.2-0.5z"/>
<path class="st1" d="M332.5,49.5c-17.1,0-34.2,2.5-50.5,7.4c-8.7,2.8-17.7,4.3-26.9,4.7c-9.2-0.4-18.2-1.9-26.9-4.7
	c-16.3-4.9-33.4-7.4-50.5-7.4c-40.9-1.6-75.5,28.5-77.4,67.3l0,0v5.3c0,78,43.3,154.7,74.5,204.1c8.4,13.1,26.4,17.4,40.3,9.6
	c9-5,14.5-14.1,14.4-24v-79.5c-0.3-12.2,8.8-22.9,21.5-25.1c13.7-2.5,27,5.9,29.7,18.9c0.1,0.3,0.1,0.6,0.2,0.9
	c0.1,1.4,0.1,2.7,0,4.1v81.4c0.1,15.3,13.2,27.6,29.3,27.6c10.3,0,19.9-5.2,25.3-13.6c31.1-49.7,74.4-126.4,74.4-204.1
	c1-38.7-31.1-70.8-71.8-72l0,0C336.2,50,334.3,49.7,332.5,49.5z"/>
</svg>
