<svg id="Capa_1" data-name="Capa 1" xmlns="http://www.w3.org/2000/svg" viewBox="0 0 179.29 25.83"><defs><style>.cls-1,.cls-2{fill:#1f3bb3;}.cls-1{fill-rule:evenodd;}.cls-3{fill:#fff;}</style></defs><path class="cls-1" d="M41.73,25.53H39.12V1.47h3.71l2.78,17.58L48.14,1.47h3.71V25.53H49.19v-9l.12-8.23L46.69,25.42H44.35L41.62,8.33l.11,8.23Zm12.91-4.65V5h2.94v16a4.18,4.18,0,0,0,.23,1.22.82.82,0,0,0,.95.56c.74,0,1.18-.57,1.3-1.7,0-.25,0-.5,0-.76L60.13,5H63V25.53H60.11V23.4a4.87,4.87,0,0,1-.46,1.13,2.26,2.26,0,0,1-2.06,1.26,2.54,2.54,0,0,1-1.36-.35q-1.3-.78-1.53-3.33Q54.64,21.51,54.64,20.88Zm96.06-2.19V12.05a19.1,19.1,0,0,1,.07-2,7.57,7.57,0,0,1,1.18-4,3.2,3.2,0,0,1,1.24-.92A4.67,4.67,0,0,1,155,4.8a5.1,5.1,0,0,1,1.1.14,2.91,2.91,0,0,1,1.83,1.39,7.29,7.29,0,0,1,.84,3,12.75,12.75,0,0,1,.07,1.38V13H156V9.92a5.61,5.61,0,0,0-.19-1.52,1.34,1.34,0,0,0-.07-.18,1,1,0,0,0-.45-.4,1.28,1.28,0,0,0-.34-.07h-.12a.94.94,0,0,0-.85.58.38.38,0,0,0-.06.13,5.08,5.08,0,0,0-.15.52,9.28,9.28,0,0,0-.12,1.66v9.24a8.92,8.92,0,0,0,.16,1.94l.09.29a1,1,0,0,0,.92.71c.59,0,.93-.46,1.08-1.34V17.42h2.82V19.5a14.28,14.28,0,0,1-.09,1.74,10.51,10.51,0,0,1-.3,1.6,5.7,5.7,0,0,1-.51,1.28,2.91,2.91,0,0,1-1.64,1.41,3.23,3.23,0,0,1-1.07.21h-.28a4,4,0,0,1-2.32-.59,3,3,0,0,1-.94-1.17,6.63,6.63,0,0,1-.51-1.52,15.58,15.58,0,0,1-.36-3.61Zm-37.39-8v1.12h-2.62V10.49a6.29,6.29,0,0,0-.25-2.07,1,1,0,0,0-.84-.68,1.13,1.13,0,0,0-.66.24,2,2,0,0,0-.19.22,2.41,2.41,0,0,0-.27,1.21.88.88,0,0,0,0,.23A4.29,4.29,0,0,0,109,11.7a5.68,5.68,0,0,0,.64,1l1.57,1.76a11.11,11.11,0,0,1,1.38,2,8.74,8.74,0,0,1,1,4.08,8.57,8.57,0,0,1-.39,2.81,4,4,0,0,1-.53,1.13,3.15,3.15,0,0,1-2.33,1.27,3.53,3.53,0,0,1-.65,0,4.31,4.31,0,0,1-1.13-.13,3.16,3.16,0,0,1-1.17-.56,3,3,0,0,1-.67-.74,4.5,4.5,0,0,1-.58-1.28,11.41,11.41,0,0,1-.38-2.92V18.45h2.78V20.1c0,.31,0,.61,0,.91.11,1.22.48,1.83,1.09,1.83a.89.89,0,0,0,.71-.28.8.8,0,0,0,.15-.21,1.92,1.92,0,0,0,.14-.36,5.8,5.8,0,0,0-.52-3.82,7.42,7.42,0,0,0-.84-1.23h0l-.55-.62-.16-.17-.75-.84h0a7.55,7.55,0,0,1-1.32-2,8.1,8.1,0,0,1-.73-3.41c0-2.91,1-4.56,2.93-4.94a5.43,5.43,0,0,1,1-.1,4.73,4.73,0,0,1,1.06.13,2.86,2.86,0,0,1,1.78,1.25,8.73,8.73,0,0,1,.82,4.48Zm65.68,0v1.12h-2.61V10.49a6.3,6.3,0,0,0-.26-2.07.89.89,0,0,0-.85-.68,1.09,1.09,0,0,0-.67.21,1,1,0,0,0-.2.22,2.52,2.52,0,0,0-.27,1.21v.23a4.29,4.29,0,0,0,.52,2.06,5.73,5.73,0,0,0,.65,1l1.57,1.76a11.11,11.11,0,0,1,1.38,2,8.94,8.94,0,0,1,1,4.16,8.84,8.84,0,0,1-.39,2.81,4.17,4.17,0,0,1-.58,1.13A3.15,3.15,0,0,1,176,25.8a3.42,3.42,0,0,1-.64,0,4.31,4.31,0,0,1-1.13-.13,3.09,3.09,0,0,1-1.17-.56,3,3,0,0,1-.68-.74,4.76,4.76,0,0,1-.57-1.28,11,11,0,0,1-.38-2.92V18.45h2.78V20.1a6.91,6.91,0,0,0,0,.91q.17,1.83,1.08,1.83a.89.89,0,0,0,.71-.28,1.16,1.16,0,0,0,.16-.21,1.91,1.91,0,0,0,.13-.36,5.73,5.73,0,0,0-.51-3.82,6.91,6.91,0,0,0-.85-1.23h0l-.55-.62-.16-.17-.74-.84h0a8,8,0,0,1-1.32-2,8.09,8.09,0,0,1-.72-3.41q0-4.36,2.93-4.94a5.34,5.34,0,0,1,1-.1A4.73,4.73,0,0,1,176.4,5a3,3,0,0,1,1.78,1.25,8.72,8.72,0,0,1,.81,4.48Zm-113.28,8V11.06c0-3.71,1.1-5.78,3.32-6.2A4.7,4.7,0,0,1,70,4.77a3.83,3.83,0,0,1,2.22.61,2.76,2.76,0,0,1,.92,1,6.46,6.46,0,0,1,.5,1.6,13,13,0,0,1,.26,1.62c0,.53.06,1,.06,1.58v4.39H68.65v4a9.43,9.43,0,0,0,.21,2.49,1.55,1.55,0,0,0,.08.23,1,1,0,0,0,.7.56h.2a.77.77,0,0,0,.77-.34,3.26,3.26,0,0,0,.33-1.23V17.76h2.89v2.39a11.69,11.69,0,0,1-.34,2.71,7,7,0,0,1-.22.69,4.22,4.22,0,0,1-.56,1.05h0a2.82,2.82,0,0,1-1.16.85,4.4,4.4,0,0,1-1.75.31,4.27,4.27,0,0,1-1.33-.18,3.41,3.41,0,0,1-2.27-2.45,12.4,12.4,0,0,1-.31-1.4,13.85,13.85,0,0,1-.15-1.58c0-.47,0-1,0-1.44Zm62.64,0V11.06q0-5.57,3.33-6.2a4.88,4.88,0,0,1,.93-.09,3.76,3.76,0,0,1,2.2.61,2.88,2.88,0,0,1,.93,1,7.29,7.29,0,0,1,.55,1.5,13,13,0,0,1,.25,1.62,14,14,0,0,1,.06,1.58v4.39h-5.25v4a9.86,9.86,0,0,0,.2,2.49l.09.23a.93.93,0,0,0,.69.56h.2a.79.79,0,0,0,.78-.34,3.27,3.27,0,0,0,.34-1.23V17.66h2.89v2.39a11.69,11.69,0,0,1-.34,2.71,6.2,6.2,0,0,1-.23.69,3.53,3.53,0,0,1-.56,1.05h0a2.88,2.88,0,0,1-1.17.85,4.36,4.36,0,0,1-1.74.31,4.27,4.27,0,0,1-1.33-.18A3.36,3.36,0,0,1,128.9,23a8.1,8.1,0,0,1-.3-1.4c-.08-.48-.13-1-.17-1.58s0-.86,0-1.34Zm32.75,0V11.06q0-5.57,3.31-6.2a4.88,4.88,0,0,1,.93-.09,3.83,3.83,0,0,1,2.22.61,3,3,0,0,1,.92,1,6.72,6.72,0,0,1,.54,1.5,11.37,11.37,0,0,1,.26,1.62c.05.53.06,1,.06,1.58v4.39h-5.26v4a10.35,10.35,0,0,0,.21,2.49.8.8,0,0,0,.1.23.92.92,0,0,0,.68.56h.21a.78.78,0,0,0,.76-.34,3,3,0,0,0,.35-1.23V17.66h2.89v2.39a12.25,12.25,0,0,1-.33,2.71,7,7,0,0,1-.23.69,3.66,3.66,0,0,1-.56,1.05h0a2.82,2.82,0,0,1-1.16.85,5.06,5.06,0,0,1-3.08.13A3.41,3.41,0,0,1,161.65,23a10.53,10.53,0,0,1-.3-1.4c-.08-.48-.12-1-.16-1.58s-.09-.86-.09-1.34Zm-66,1.45V18.83a11.22,11.22,0,0,1,.11-1.52,6,6,0,0,1,.49-1.6,4.06,4.06,0,0,1,.55-.86,6.9,6.9,0,0,1,2.14-1.55l.36-.17.63-.3.26-.11.8-.37V10.56a8.57,8.57,0,0,0-.19-2.26.82.82,0,0,0-.8-.6h-.42a.92.92,0,0,0-.58.59,1.63,1.63,0,0,0-.11.42,5.51,5.51,0,0,0-.11,1.14v1.48h-2.9v-.62a15.19,15.19,0,0,1,.08-1.65,9.44,9.44,0,0,1,.26-1.47,5.79,5.79,0,0,1,.53-1.32,2.89,2.89,0,0,1,1.27-1.18,4.6,4.6,0,0,1,1-.3,5.39,5.39,0,0,1,.8-.06,3.45,3.45,0,0,1,3.18,1.54,7,7,0,0,1,.86,3,12.93,12.93,0,0,1,.07,1.64V25.53h-2.93v-2a3.31,3.31,0,0,1-.84,1.55,2,2,0,0,1-1.34.65h-.17a2.63,2.63,0,0,1-.92-.13,2.35,2.35,0,0,1-1.42-1.31,10.12,10.12,0,0,1-.72-4.09Zm27.65,5.39h-3V1.47h6.66V4.65h-3.7v6.4h3.43v3.2h-3.43Zm-29.49.14h-2a3.82,3.82,0,0,1-.68-.05,2.18,2.18,0,0,1-1.17-.41,1.44,1.44,0,0,1-.27-.28,2.16,2.16,0,0,1-.3-.63,6.69,6.69,0,0,1-.23-1.9V8.07H87.35V5.44h1.34v-4h2.93v4h1.57V8.07H91.62v14a1,1,0,0,0,.21.55l.08.07a.48.48,0,0,0,.18.08,3.92,3.92,0,0,0,1.18.12Zm-13.83-.14H76.51V1.26h2.9Zm62.66,0H139.2V1.26h2.91Zm-56.75,0H82.45V5h2.91Zm62.66,0h-2.94V5H148Zm-47.56-4.17v-7c-.21.12-.43.24-.64.38a4.5,4.5,0,0,0-1.23,1.07,2.49,2.49,0,0,0-.32.68,4.34,4.34,0,0,0-.14.7v2.94a8.5,8.5,0,0,0,.15,1.75,2.81,2.81,0,0,0,.1.31,1.27,1.27,0,0,0,.2.34.69.69,0,0,0,.59.28,1.12,1.12,0,0,0,.44-.09,1,1,0,0,0,.45-.37A2.12,2.12,0,0,0,100.46,21.36ZM68.64,10.87V13.4H71V10.78a9.87,9.87,0,0,0-.21-2.42,1.66,1.66,0,0,0-.2-.4.89.89,0,0,0-.47-.31h-.21c-.76,0-1.17.71-1.24,2.12v.06a1.31,1.31,0,0,1,0,.28v.77Zm62.65,0V13.4h2.36V10.78a9.41,9.41,0,0,0-.22-2.42,1.44,1.44,0,0,0-.18-.4.93.93,0,0,0-.47-.31h-.23c-.75,0-1.16.71-1.23,2.12v1.11Zm32.73,0V13.4h2.38V10.78a9.87,9.87,0,0,0-.22-2.42A1.62,1.62,0,0,0,166,8a.93.93,0,0,0-.47-.31h-.22c-.76,0-1.16.71-1.23,2.12v1.11ZM85.36,3.13h-3V0h3Zm62.64,0h-2.92V0H148Z" transform="translate(0 0.02)"/><path class="cls-2" d="M18.39,1.3a13.21,13.21,0,0,0-4,.62,7.77,7.77,0,0,1-2.13.39,7.77,7.77,0,0,1-2.13-.39,13.21,13.21,0,0,0-4-.62A5.88,5.88,0,0,0,0,6.91H0v.44c0,6.5,3.43,12.89,5.9,17a2.35,2.35,0,0,0,3.19.8,2.29,2.29,0,0,0,1.14-2V16.53a2.09,2.09,0,0,1,1.7-2.09A2,2,0,0,1,14.28,16s0,.05,0,.07a1.93,1.93,0,0,1,0,.34v6.78a2.33,2.33,0,0,0,4.32,1.17c2.46-4.14,5.89-10.53,5.89-17a5.86,5.86,0,0,0-5.68-6h0A3.25,3.25,0,0,0,18.39,1.3Z" transform="translate(0 0.02)"/><path class="cls-3" d="M16,3.66A8.65,8.65,0,0,0,13.54,4a5.05,5.05,0,0,1-1.28.22A5.05,5.05,0,0,1,11,4a8.25,8.25,0,0,0-2.42-.36A3.5,3.5,0,0,0,4.84,6.85h0V7.1c0,3.69,2.08,7.32,3.57,9.65a1.47,1.47,0,0,0,1.93.45A1.28,1.28,0,0,0,11,16.07V12.31A1.25,1.25,0,0,1,13.48,12v0a.6.6,0,0,1,0,.19V16.1a1.37,1.37,0,0,0,1.41,1.31,1.47,1.47,0,0,0,1.21-.64c1.48-2.35,3.56-6,3.56-9.65a3.44,3.44,0,0,0-3.44-3.41h0Z" transform="translate(0 0.02)"/></svg>