<svg id="Capa_1" data-name="Capa 1" xmlns="http://www.w3.org/2000/svg" viewBox="0 0 179.29 25.8"><defs><style>.cls-1,.cls-2{fill:#374957;}.cls-1{fill-rule:evenodd;}</style></defs><g id="fontsvg1696907373779"><path class="cls-1" d="M34.48,26.55H31.66V2.49h4l3,17.58L41.39,2.49h4V26.55H42.53v-9l.12-8.23L39.83,26.44H37.3L34.36,9.35l.12,8.23ZM48.41,21.9V6h3.17v15.3c0,.22,0,.44,0,.66a3.81,3.81,0,0,0,.25,1.22,1,1,0,0,0,.65.56,1.57,1.57,0,0,0,.37,0c.8,0,1.27-.57,1.4-1.7a6.45,6.45,0,0,0,0-.76L54.33,6h3.14V26.55H54.31V24.42a5,5,0,0,1-.5,1.13,2.47,2.47,0,0,1-2.22,1.26,3,3,0,0,1-1.47-.35q-1.4-.78-1.65-3.33Q48.41,22.52,48.41,21.9Zm103.65-2.19V13.07c0-.67,0-1.33.08-2a7.15,7.15,0,0,1,1.27-4,3.36,3.36,0,0,1,1.34-.92,5.18,5.18,0,0,1,1.94-.33,5.3,5.3,0,0,1,1.19.14,3.38,3.38,0,0,1,1.24.58,3.16,3.16,0,0,1,.73.81,6.78,6.78,0,0,1,.91,3,12.75,12.75,0,0,1,.07,1.38V14h-3.05V11.59c0-.22,0-.43,0-.65a5.31,5.31,0,0,0-.2-1.52,1.42,1.42,0,0,0-.08-.18,1,1,0,0,0-.49-.4,1.28,1.28,0,0,0-.36-.07h-.13a1,1,0,0,0-.92.58.38.38,0,0,0-.06.13,3.13,3.13,0,0,0-.16.52,8.35,8.35,0,0,0-.14,1.66v9.24a8.22,8.22,0,0,0,.18,1.94l.09.29a1.05,1.05,0,0,0,1,.71c.63,0,1-.46,1.16-1.34,0-.12,0-.25,0-.37s0-.43,0-.69v-3h3.05v2.08a14.5,14.5,0,0,1-.1,1.74,9.84,9.84,0,0,1-.32,1.6,5.46,5.46,0,0,1-.56,1.28,3.08,3.08,0,0,1-1.76,1.41,4.19,4.19,0,0,1-1.16.21h-.3a4.65,4.65,0,0,1-2.5-.59A3.1,3.1,0,0,1,153,25a6.73,6.73,0,0,1-.55-1.52,15,15,0,0,1-.39-3.61Zm-40.35-8v1.12h-2.82V11.51a5.93,5.93,0,0,0-.27-2.07,1,1,0,0,0-.91-.68A1.22,1.22,0,0,0,107,9a1.07,1.07,0,0,0-.2.22,2.22,2.22,0,0,0-.3,1.21,1.85,1.85,0,0,0,0,.23,4.13,4.13,0,0,0,.56,2.06,5.71,5.71,0,0,0,.7,1l1.69,1.76a10.81,10.81,0,0,1,1.49,2A8.28,8.28,0,0,1,112,21.56a8.2,8.2,0,0,1-.42,2.81A4.28,4.28,0,0,1,111,25.5a3.54,3.54,0,0,1-2.51,1.27,5.48,5.48,0,0,1-.7,0,5.56,5.56,0,0,1-1.22-.13,3.7,3.7,0,0,1-1.26-.56,3.42,3.42,0,0,1-.73-.74,4.47,4.47,0,0,1-.62-1.28,10.36,10.36,0,0,1-.41-2.92c0-.13,0-.26,0-.39V19.47h3v1.65a9.1,9.1,0,0,0,0,.91q.18,1.83,1.17,1.83a1.08,1.08,0,0,0,.77-.28,1.16,1.16,0,0,0,.16-.21,1.94,1.94,0,0,0,.15-.36,5.38,5.38,0,0,0-.56-3.82,6.72,6.72,0,0,0-.91-1.23l0,0-.59-.62-.17-.17-.81-.84,0,0a7.87,7.87,0,0,1-1.43-2,7.65,7.65,0,0,1-.78-3.41c0-2.91,1.06-4.56,3.16-4.94a5.36,5.36,0,0,1,1.06-.1,4.92,4.92,0,0,1,1.14.13,3.06,3.06,0,0,1,1.92,1.25A8.12,8.12,0,0,1,111.71,11.74Zm70.88,0v1.12h-2.82V11.51a5.66,5.66,0,0,0-.28-2.07.94.94,0,0,0-.91-.68,1.19,1.19,0,0,0-.73.21.88.88,0,0,0-.21.22,2.32,2.32,0,0,0-.29,1.21,1.85,1.85,0,0,0,0,.23,4,4,0,0,0,.56,2.06,5.71,5.71,0,0,0,.7,1l1.69,1.76a11.28,11.28,0,0,1,1.49,2,8.38,8.38,0,0,1,1.12,4.16,8.2,8.2,0,0,1-.42,2.81,4.28,4.28,0,0,1-.62,1.13,3.54,3.54,0,0,1-2.52,1.27,5.32,5.32,0,0,1-.69,0,5.56,5.56,0,0,1-1.22-.13,3.62,3.62,0,0,1-1.26-.56,3.42,3.42,0,0,1-.73-.74,4.47,4.47,0,0,1-.62-1.28,10.36,10.36,0,0,1-.41-2.92c0-.13,0-.26,0-.39V19.47h3v1.65a6.85,6.85,0,0,0,0,.91q.18,1.83,1.17,1.83a1,1,0,0,0,.76-.28.87.87,0,0,0,.17-.21,1.94,1.94,0,0,0,.15-.36,5.38,5.38,0,0,0-.56-3.82,6.72,6.72,0,0,0-.91-1.23l0,0-.6-.62-.17-.17-.8-.84,0,0a8.09,8.09,0,0,1-1.42-2,7.52,7.52,0,0,1-.78-3.41c0-2.91,1.06-4.56,3.16-4.94a5.36,5.36,0,0,1,1.06-.1,4.92,4.92,0,0,1,1.14.13,3.12,3.12,0,0,1,1.92,1.25A8.12,8.12,0,0,1,182.59,11.74Zm-122.24,8V12.08q0-5.57,3.58-6.2a5.31,5.31,0,0,1,1-.09,4.32,4.32,0,0,1,2.39.61,2.89,2.89,0,0,1,1,1A6.09,6.09,0,0,1,68.85,9a10.47,10.47,0,0,1,.28,1.62c.05.53.07,1,.07,1.58v4.39H63.52v4a9.23,9.23,0,0,0,.23,2.49,1.57,1.57,0,0,0,.09.23,1.08,1.08,0,0,0,.75.56l.22,0a.89.89,0,0,0,.83-.34A3.12,3.12,0,0,0,66,22.3c0-.15,0-.3,0-.44,0-.31,0-.67,0-1.08v-2h3.11v1.09c0,.44,0,.87,0,1.3a11.27,11.27,0,0,1-.36,2.71q-.11.35-.24.69a3.88,3.88,0,0,1-.61,1.05l0,0a3.1,3.1,0,0,1-1.25.85,5.2,5.2,0,0,1-1.89.31,5,5,0,0,1-1.43-.18,3.52,3.52,0,0,1-2.45-2.45,11,11,0,0,1-.33-1.4,14.17,14.17,0,0,1-.17-1.58C60.36,20.7,60.34,20.21,60.35,19.73Zm67.6,0V12.08q0-5.57,3.59-6.2a5.23,5.23,0,0,1,1-.09,4.29,4.29,0,0,1,2.38.61,2.92,2.92,0,0,1,1,1,6.51,6.51,0,0,1,.59,1.5,10.52,10.52,0,0,1,.27,1.62,13.92,13.92,0,0,1,.07,1.58v4.39h-5.67v4a9.34,9.34,0,0,0,.22,2.49,1.6,1.6,0,0,0,.1.23,1,1,0,0,0,.74.56l.22,0a.9.9,0,0,0,.84-.34,3.1,3.1,0,0,0,.36-1.23c0-.15,0-.3,0-.44,0-.31,0-.67,0-1.08v-2h3.12v1.09c0,.44,0,.87,0,1.3a11.27,11.27,0,0,1-.36,2.71c-.07.23-.16.46-.25.69a3.63,3.63,0,0,1-.61,1.05l0,0a3.2,3.2,0,0,1-1.26.85,5.11,5.11,0,0,1-1.88.31,5,5,0,0,1-1.43-.18,3.5,3.5,0,0,1-2.45-2.45,8.38,8.38,0,0,1-.33-1.4c-.08-.48-.14-1-.18-1.58S128,20.21,128,19.73Zm35.33,0V12.08q0-5.57,3.58-6.2a5.31,5.31,0,0,1,1-.09,4.32,4.32,0,0,1,2.39.61,3,3,0,0,1,1,1,6.48,6.48,0,0,1,.58,1.5,10.47,10.47,0,0,1,.28,1.62c.05.53.07,1,.07,1.58v4.39h-5.68v4a9.23,9.23,0,0,0,.23,2.49.94.94,0,0,0,.1.23,1,1,0,0,0,.74.56l.22,0c.43,0,.71-.12.83-.34a3,3,0,0,0,.37-1.23l0-.44c0-.31,0-.67,0-1.08v-2h3.12v1.09c0,.44,0,.87,0,1.3a10.78,10.78,0,0,1-.36,2.71q-.1.35-.24.69a3.88,3.88,0,0,1-.61,1.05l0,0a3.1,3.1,0,0,1-1.25.85,5.13,5.13,0,0,1-1.89.31,5,5,0,0,1-1.43-.18,3.52,3.52,0,0,1-2.45-2.45,11,11,0,0,1-.33-1.4c-.08-.48-.13-1-.17-1.58S163.28,20.21,163.28,19.73ZM92.09,21.16V19.85a9.64,9.64,0,0,1,.12-1.52,5.67,5.67,0,0,1,.52-1.6,4.12,4.12,0,0,1,.6-.86,7.24,7.24,0,0,1,2.31-1.55l.39-.17.68-.3.28-.11.86-.37V11.58a7.93,7.93,0,0,0-.21-2.26.86.86,0,0,0-.86-.6h-.09a1.47,1.47,0,0,0-.36,0,.93.93,0,0,0-.63.59,1.66,1.66,0,0,0-.12.42,5.69,5.69,0,0,0-.12,1.14c0,.19,0,.37,0,.56v.92H92.33v-.62a15.2,15.2,0,0,1,.09-1.65,8.53,8.53,0,0,1,.28-1.47,5.79,5.79,0,0,1,.57-1.32,3,3,0,0,1,1.37-1.18,4.55,4.55,0,0,1,1.13-.3,6.22,6.22,0,0,1,.86-.06,3.82,3.82,0,0,1,3.43,1.54,6.67,6.67,0,0,1,.93,2.95,12.87,12.87,0,0,1,.08,1.64V26.55H97.9v-2A3.32,3.32,0,0,1,97,26.1a2.25,2.25,0,0,1-1.45.65h-.18a3.2,3.2,0,0,1-1-.13,2.52,2.52,0,0,1-1.53-1.31,9.37,9.37,0,0,1-.77-4.09Zm29.83,5.39h-3.19V2.49h7.19V5.67h-4v6.4h3.71v3.2h-3.71Zm-31.82.14H88a6.13,6.13,0,0,1-.74-.05A2.62,2.62,0,0,1,86,26.23a1.9,1.9,0,0,1-.29-.28,2,2,0,0,1-.32-.63,6.11,6.11,0,0,1-.25-1.9V9.09H83.7V6.46h1.45v-4h3.16v4H90V9.09H88.31v13.7c0,.1,0,.21,0,.31a1,1,0,0,0,.23.55l.08.07a.84.84,0,0,0,.2.08,4.85,4.85,0,0,0,1.27.12Zm-14.92-.14H72V2.28h3.14Zm67.61,0h-3.14V2.28h3.14Zm-61.23,0H78.41V6h3.15Zm67.61,0H146V6h3.16ZM97.85,22.38v-7c-.23.12-.46.24-.69.38a4.61,4.61,0,0,0-1.33,1.07,2.07,2.07,0,0,0-.34.68,3.45,3.45,0,0,0-.15.7c0,.24,0,.49,0,.74v2.2a7.82,7.82,0,0,0,.16,1.75,2.81,2.81,0,0,0,.1.31,1.33,1.33,0,0,0,.22.34.79.79,0,0,0,.64.28,1.27,1.27,0,0,0,.47-.09,1.16,1.16,0,0,0,.49-.37A2.11,2.11,0,0,0,97.85,22.38ZM63.51,11.89v2.53h2.55V11.8a9.13,9.13,0,0,0-.23-2.42,1.53,1.53,0,0,0-.21-.4.9.9,0,0,0-.51-.31l-.23,0h0c-.82,0-1.26.71-1.33,2.12v.06a2.72,2.72,0,0,1,0,.28c0,.22,0,.47,0,.77Zm67.61,0v2.53h2.54V11.8a8.72,8.72,0,0,0-.23-2.42,1.25,1.25,0,0,0-.2-.4.9.9,0,0,0-.51-.31l-.24,0h0c-.81,0-1.25.71-1.33,2.12v.06c0,.09,0,.18,0,.28s0,.47,0,.77Zm35.32,0v2.53H169V11.8a9.13,9.13,0,0,0-.23-2.42,1.53,1.53,0,0,0-.21-.4.9.9,0,0,0-.51-.31l-.23,0h0c-.82,0-1.26.71-1.33,2.12v.06c0,.09,0,.18,0,.28s0,.47,0,.77ZM81.55,4.15H78.37V1h3.18Zm67.6,0H146V1h3.17Z" transform="translate(-3.61 -1.01)"/></g><path class="cls-2" d="M22,2.31a13.32,13.32,0,0,0-4,.62,7.64,7.64,0,0,1-2.13.39,7.77,7.77,0,0,1-2.13-.39,13.21,13.21,0,0,0-4-.62A5.89,5.89,0,0,0,3.61,7.92h0v.44c0,6.5,3.43,12.89,5.9,17a2.34,2.34,0,0,0,3.19.8,2.29,2.29,0,0,0,1.14-2V17.54a2.08,2.08,0,0,1,1.7-2.09A2,2,0,0,1,17.9,17.1a1.87,1.87,0,0,1,0,.34v6.78a2.32,2.32,0,0,0,2.32,2.3,2.35,2.35,0,0,0,2-1.13c2.46-4.14,5.89-10.53,5.89-17a5.86,5.86,0,0,0-5.68-6h0A3.38,3.38,0,0,0,22,2.31Z" transform="translate(-3.61 -1.01)"/></svg>