<svg id="Capa_1" data-name="Capa 1" xmlns="http://www.w3.org/2000/svg" viewBox="0 0 179.3 25.83"><defs><style>.cls-1,.cls-2{fill:#1f3bb3;}.cls-1{fill-rule:evenodd;}.cls-3{fill:#fff;}</style></defs><path class="cls-1" d="M30.87,25.54H28.05V1.48h4l3,17.58L37.78,1.48h4V25.54H38.92v-9L39,8.31,36.22,25.43H33.69L30.75,8.34l.12,8.23ZM44.8,20.89V5H48V21a3.9,3.9,0,0,0,.25,1.22,1,1,0,0,0,.65.56h.37c.8,0,1.27-.57,1.4-1.7,0-.25,0-.51,0-.76L50.72,5h3.14V25.54H50.7V23.41a5,5,0,0,1-.5,1.13A2.48,2.48,0,0,1,48,25.8a3,3,0,0,1-1.47-.35q-1.4-.78-1.65-3.33Q44.8,21.51,44.8,20.89ZM148.45,18.7V12.06a16.72,16.72,0,0,1,.08-2,7.16,7.16,0,0,1,1.27-4,3.29,3.29,0,0,1,1.34-.92A5.57,5.57,0,0,1,154.27,5a3.36,3.36,0,0,1,1.24.58,3.12,3.12,0,0,1,.73.81,6.77,6.77,0,0,1,.91,3,12.75,12.75,0,0,1,.07,1.38V13h-3.05V9.93a5.21,5.21,0,0,0-.2-1.52,1.42,1.42,0,0,0-.08-.18,1.07,1.07,0,0,0-.49-.4,1.53,1.53,0,0,0-.36-.07h-.13a1,1,0,0,0-.92.58.31.31,0,0,0-.06.13,3.13,3.13,0,0,0-.16.52,8.4,8.4,0,0,0-.14,1.66v9.24a7.93,7.93,0,0,0,.18,1.94l.09.29a1.05,1.05,0,0,0,1,.71c.63,0,1-.46,1.16-1.34V17.43h3.05v2.08a14.5,14.5,0,0,1-.1,1.74,9.65,9.65,0,0,1-.32,1.6,5.41,5.41,0,0,1-.56,1.28,3.08,3.08,0,0,1-1.76,1.41,4.16,4.16,0,0,1-1.16.21h-.3a4.65,4.65,0,0,1-2.5-.59,3.2,3.2,0,0,1-1-1.17,6.73,6.73,0,0,1-.55-1.52,14.63,14.63,0,0,1-.39-3.61Zm-40.35-8v1.12h-2.82V10.5A6.05,6.05,0,0,0,105,8.43a1,1,0,0,0-.91-.68,1.21,1.21,0,0,0-.71.24,1,1,0,0,0-.2.22,2.25,2.25,0,0,0-.3,1.21v.23a4.16,4.16,0,0,0,.56,2.06,5.79,5.79,0,0,0,.7,1l1.69,1.76a11.18,11.18,0,0,1,1.49,2,8.83,8.83,0,0,1,.64,6.89,4.48,4.48,0,0,1-.58,1.13,3.55,3.55,0,0,1-2.51,1.27h-.7a5.56,5.56,0,0,1-1.22-.13,3.86,3.86,0,0,1-1.26-.56,3.41,3.41,0,0,1-.73-.74,4.6,4.6,0,0,1-.62-1.28,10.3,10.3,0,0,1-.41-2.92V18.46h3v1.65a6.91,6.91,0,0,0,0,.91q.18,1.83,1.17,1.83a1.1,1.1,0,0,0,.77-.28,1.16,1.16,0,0,0,.16-.21,2.28,2.28,0,0,0,.15-.36,5.41,5.41,0,0,0-.56-3.82,6.87,6.87,0,0,0-.91-1.23h0l-.59-.62-.17-.17-.81-.84h0a7.86,7.86,0,0,1-1.43-2,7.61,7.61,0,0,1-.78-3.41C99.94,7,101,5.35,103.1,5a5.36,5.36,0,0,1,1.06-.1A4.86,4.86,0,0,1,105.3,5a3,3,0,0,1,1.92,1.25,8.09,8.09,0,0,1,.88,4.48Zm70.88,0v1.12h-2.82V10.5a5.61,5.61,0,0,0-.28-2.07.94.94,0,0,0-.91-.68,1.18,1.18,0,0,0-.73.21,1.1,1.1,0,0,0-.21.22,2.24,2.24,0,0,0-.29,1.21v.23a4,4,0,0,0,.56,2.06,5.79,5.79,0,0,0,.7,1l1.69,1.76a11.18,11.18,0,0,1,1.49,2,8.76,8.76,0,0,1,.7,7,4.28,4.28,0,0,1-.62,1.13,3.58,3.58,0,0,1-2.52,1.27q-.35,0-.69,0a5.56,5.56,0,0,1-1.22-.13,3.48,3.48,0,0,1-1.26-.56,3.41,3.41,0,0,1-.73-.74,4.6,4.6,0,0,1-.62-1.28,10.3,10.3,0,0,1-.41-2.92V18.46h3v1.65a6.91,6.91,0,0,0,0,.91q.18,1.83,1.17,1.83a1,1,0,0,0,.76-.28.87.87,0,0,0,.17-.21,2.28,2.28,0,0,0,.15-.36,5.41,5.41,0,0,0-.56-3.82,6.87,6.87,0,0,0-.91-1.23h0l-.6-.62-.17-.17-.8-.84h0a8.26,8.26,0,0,1-1.42-2,7.61,7.61,0,0,1-.78-3.41C170.82,7,171.88,5.35,174,5a5.36,5.36,0,0,1,1.06-.1,4.86,4.86,0,0,1,1.14.13,3.1,3.1,0,0,1,1.92,1.25,8.09,8.09,0,0,1,.88,4.48Zm-122.24,8V11.07q0-5.56,3.58-6.2a5.55,5.55,0,0,1,1-.09,4.36,4.36,0,0,1,2.39.61,3,3,0,0,1,1,1A6,6,0,0,1,65.24,8a9.8,9.8,0,0,1,.28,1.62c0,.53.07,1,.07,1.58v4.39H59.91v4a9.07,9.07,0,0,0,.23,2.49.92.92,0,0,0,.09.23,1.07,1.07,0,0,0,.75.56h.22a.91.91,0,0,0,.83-.34,3.12,3.12,0,0,0,.36-1.23V17.77H65.5v2.39a11.33,11.33,0,0,1-.36,2.71q-.11.35-.24.69a4,4,0,0,1-.61,1.05h0a3.17,3.17,0,0,1-1.25.85,5.32,5.32,0,0,1-1.89.31,5,5,0,0,1-1.43-.18,3.52,3.52,0,0,1-2.45-2.45,11.37,11.37,0,0,1-.33-1.4,13.87,13.87,0,0,1-.17-1.58c0-.47,0-1,0-1.44Zm67.6,0V11.07q0-5.56,3.59-6.2a5.55,5.55,0,0,1,1-.09,4.32,4.32,0,0,1,2.38.61,3,3,0,0,1,1,1,6.24,6.24,0,0,1,.59,1.5,11,11,0,0,1,.27,1.62,13.82,13.82,0,0,1,.07,1.58v4.39h-5.67v4a9.47,9.47,0,0,0,.22,2.49,1.6,1.6,0,0,0,.1.23,1,1,0,0,0,.74.56h.22a.89.89,0,0,0,.84-.34,3.12,3.12,0,0,0,.36-1.23V17.67h3.12v2.39a11.33,11.33,0,0,1-.36,2.71c-.07.23-.16.46-.25.69a3.56,3.56,0,0,1-.61,1.05h0a3.27,3.27,0,0,1-1.26.85,5,5,0,0,1-1.88.31,5,5,0,0,1-1.43-.18A3.52,3.52,0,0,1,124.93,23a8.38,8.38,0,0,1-.33-1.4c-.08-.48-.14-1-.18-1.58s0-.86,0-1.34Zm35.33,0V11.07q0-5.56,3.58-6.2a5.55,5.55,0,0,1,1-.09,4.36,4.36,0,0,1,2.39.61,3,3,0,0,1,1,1,6.66,6.66,0,0,1,.58,1.5,9.8,9.8,0,0,1,.28,1.62c.05.53.07,1,.07,1.58v4.39h-5.68v4a9.07,9.07,0,0,0,.23,2.49.94.94,0,0,0,.1.23,1,1,0,0,0,.74.56h.22c.43,0,.71-.12.83-.34a3,3,0,0,0,.37-1.23V17.67h3.12v2.39a10.78,10.78,0,0,1-.36,2.71q-.1.35-.24.69a4,4,0,0,1-.61,1.05h0a3.17,3.17,0,0,1-1.25.85,5.07,5.07,0,0,1-1.89.31,5,5,0,0,1-1.43-.18A3.52,3.52,0,0,1,160.27,23a11.37,11.37,0,0,1-.33-1.4c-.08-.48-.13-1-.17-1.58s-.1-.86-.1-1.34ZM88.48,20.15V18.84a9.64,9.64,0,0,1,.12-1.52,5.56,5.56,0,0,1,.52-1.6,3.91,3.91,0,0,1,.6-.86A7.22,7.22,0,0,1,92,13.31l.39-.17.68-.3.28-.11.86-.37V10.57A7.81,7.81,0,0,0,94,8.31a.86.86,0,0,0-.86-.6h-.45a.93.93,0,0,0-.63.59,1.55,1.55,0,0,0-.12.42,5.45,5.45,0,0,0-.12,1.14v1.48H88.72v-.62a15.2,15.2,0,0,1,.09-1.65,8.12,8.12,0,0,1,.28-1.47,5.73,5.73,0,0,1,.57-1.32A3,3,0,0,1,91,5.1a4.39,4.39,0,0,1,1.13-.3A6.11,6.11,0,0,1,93,4.74a3.83,3.83,0,0,1,3.43,1.54,6.6,6.6,0,0,1,.93,3,12.78,12.78,0,0,1,.08,1.64V25.54H94.29v-2a3.25,3.25,0,0,1-.9,1.55,2.21,2.21,0,0,1-1.45.65h-.18a3.06,3.06,0,0,1-1-.13,2.55,2.55,0,0,1-1.53-1.31,9.43,9.43,0,0,1-.77-4.09Zm29.83,5.39h-3.19V1.48h7.19V4.66h-4v6.4H122v3.2h-3.71Zm-31.82.14h-2.1a6.13,6.13,0,0,1-.74-.05,2.69,2.69,0,0,1-1.26-.41,1.92,1.92,0,0,1-.29-.28,2.08,2.08,0,0,1-.32-.63,6.13,6.13,0,0,1-.25-1.9V8.08H80.09V5.45h1.45v-4H84.7v4h1.69V8.08H84.7v14a1,1,0,0,0,.23.55l.08.07a.7.7,0,0,0,.2.08,4.53,4.53,0,0,0,1.27.12Zm-14.92-.14H68.39V1.27h3.14Zm67.61,0H136V1.27h3.14ZM78,25.54H74.8V5H78Zm67.61,0h-3.17V5h3.16ZM94.24,21.37v-7c-.23.12-.46.24-.69.38a4.45,4.45,0,0,0-1.33,1.07,2.07,2.07,0,0,0-.34.68,4.15,4.15,0,0,0-.15.7v2.94a7.92,7.92,0,0,0,.16,1.75,2.81,2.81,0,0,0,.1.31,1.52,1.52,0,0,0,.22.34.78.78,0,0,0,.64.28,1.27,1.27,0,0,0,.47-.09,1.18,1.18,0,0,0,.49-.37A2.15,2.15,0,0,0,94.24,21.37ZM59.9,10.88v2.53h2.55V10.79a9.38,9.38,0,0,0-.23-2.42A1.53,1.53,0,0,0,62,8a.88.88,0,0,0-.51-.31h-.23c-.82,0-1.26.71-1.33,2.12v1.11Zm67.61,0v2.53h2.54V10.79a8.58,8.58,0,0,0-.23-2.42,1.25,1.25,0,0,0-.2-.4.88.88,0,0,0-.51-.31h-.24c-.81,0-1.25.71-1.33,2.12v1.11Zm35.32,0v2.53h2.56V10.79a9.38,9.38,0,0,0-.23-2.42A1.53,1.53,0,0,0,165,8a.88.88,0,0,0-.51-.31h-.23c-.82,0-1.26.71-1.33,2.12v1.11ZM77.94,3.14H74.76V0h3.18Zm67.6,0h-3.15V0h3.17Z" transform="translate(0 0.01)"/><path class="cls-2" d="M18.39,1.3a13.21,13.21,0,0,0-4,.62,7.77,7.77,0,0,1-2.13.39,7.77,7.77,0,0,1-2.13-.39,13.21,13.21,0,0,0-4-.62A5.88,5.88,0,0,0,0,6.91H0v.44c0,6.5,3.43,12.89,5.9,17a2.35,2.35,0,0,0,3.19.8,2.29,2.29,0,0,0,1.14-2V16.53a2.09,2.09,0,0,1,1.7-2.09A2,2,0,0,1,14.28,16s0,.05,0,.07a1.93,1.93,0,0,1,0,.34v6.78a2.33,2.33,0,0,0,4.32,1.17c2.46-4.14,5.89-10.53,5.89-17a5.86,5.86,0,0,0-5.68-6h0A3.25,3.25,0,0,0,18.39,1.3Z" transform="translate(0 0.01)"/><path class="cls-3" d="M16,3.66A8.65,8.65,0,0,0,13.54,4a5.05,5.05,0,0,1-1.28.22A5.05,5.05,0,0,1,11,4a8.25,8.25,0,0,0-2.42-.36A3.5,3.5,0,0,0,4.84,6.85h0V7.1c0,3.69,2.08,7.32,3.57,9.65a1.47,1.47,0,0,0,1.93.45A1.28,1.28,0,0,0,11,16.07V12.31A1.25,1.25,0,0,1,13.48,12v0a.6.6,0,0,1,0,.19V16.1a1.37,1.37,0,0,0,1.41,1.31,1.47,1.47,0,0,0,1.21-.64c1.48-2.35,3.56-6,3.56-9.65a3.44,3.44,0,0,0-3.44-3.41h0Z" transform="translate(0 0.01)"/></svg>