<svg id="Filled" xmlns="http://www.w3.org/2000/svg" viewBox="0 0 512 512"><defs><style>.cls-1{fill:#374957;}</style></defs><path class="cls-1" d="M490.67,341.33a21.33,21.33,0,0,0-21.34,21.34v42.66a64,64,0,0,1-64,64H362.67a21.34,21.34,0,1,0,0,42.67h42.66A106.8,106.8,0,0,0,512,405.33V362.67A21.33,21.33,0,0,0,490.67,341.33Z"/><path class="cls-1" d="M21.33,170.67a21.33,21.33,0,0,0,21.34-21.34V106.67a64,64,0,0,1,64-64h42.66a21.34,21.34,0,1,0,0-42.67H106.67A106.8,106.8,0,0,0,0,106.67v42.66A21.33,21.33,0,0,0,21.33,170.67Z"/><path class="cls-1" d="M149.33,469.33H106.67a64,64,0,0,1-64-64V362.67a21.34,21.34,0,1,0-42.67,0v42.66A106.8,106.8,0,0,0,106.67,512h42.66a21.34,21.34,0,1,0,0-42.67Z"/><path class="cls-1" d="M405.33,0H362.67a21.34,21.34,0,1,0,0,42.67h42.66a64,64,0,0,1,64,64v42.66a21.34,21.34,0,1,0,42.67,0V106.67A106.8,106.8,0,0,0,405.33,0Z"/><circle class="cls-1" cx="256" cy="149.33" r="85.33"/><path class="cls-1" d="M234.67,277.33a128.12,128.12,0,0,0-128,128A21.33,21.33,0,0,0,128,426.67H384a21.33,21.33,0,0,0,21.33-21.34,128.12,128.12,0,0,0-128-128Z"/></svg>